<svg xmlns="http://www.w3.org/2000/svg" viewBox="0 0 1200 675" width="1200" height="675" role="img">
<defs><linearGradient id="bg" x1="0" y1="0" x2="1" y2="1"><stop offset="0" stop-color="#04143F"/><stop offset="0.62" stop-color="#022E7D"/><stop offset="1" stop-color="#0B45B4"/></linearGradient><linearGradient id="mint" x1="0" y1="0" x2="1" y2="1"><stop offset="0" stop-color="#27CAA1"/><stop offset="1" stop-color="#3AD8B4"/></linearGradient><pattern id="grid" width="44" height="44" patternUnits="userSpaceOnUse"><path d="M44 0H0v44" fill="none" stroke="#fff" stroke-opacity=".05" stroke-width="1"/></pattern></defs>
<rect width="1200" height="675" fill="url(#bg)"/><rect width="1200" height="675" fill="url(#grid)"/><circle cx="1080" cy="120" r="260" fill="#32D1B1" fill-opacity=".10"/>

<g transform="translate(220 120)">
  <rect x="0" y="0" width="420" height="440" rx="18" fill="#fff" fill-opacity=".97"/>
  <rect x="40" y="44" width="140" height="13" rx="6.5" fill="#27CAA1"/>
  <rect x="40" y="84" width="250" height="18" rx="9" fill="#212529" fill-opacity=".8"/>
  <g fill="#212529" fill-opacity=".14">
    <rect x="40" y="140" width="340" height="12" rx="6"/>
    <rect x="40" y="176" width="300" height="12" rx="6"/>
    <rect x="40" y="212" width="330" height="12" rx="6"/>
    <rect x="40" y="248" width="260" height="12" rx="6"/>
  </g>
  <rect x="40" y="300" width="150" height="90" rx="10" fill="#EAF7F2"/>
  <rect x="60" y="322" width="110" height="10" rx="5" fill="#1E8F73" fill-opacity=".5"/>
  <rect x="60" y="346" width="80" height="10" rx="5" fill="#1E8F73" fill-opacity=".5"/>
</g>
<g transform="translate(560 300)">
  <circle cx="120" cy="110" r="100" fill="none" stroke="url(#mint)" stroke-width="16"/>
  <circle cx="120" cy="110" r="100" fill="#32D1B1" fill-opacity=".07"/>
  <rect x="196" y="196" width="120" height="34" rx="17" fill="url(#mint)" transform="rotate(45 196 196)"/>
</g>
<g fill="none" stroke="#32D1B1" stroke-width="5" stroke-linecap="round" stroke-linejoin="round" transform="translate(880 170)">
  <circle cx="26" cy="26" r="24" stroke-opacity=".38"/><path d="M15 27l8 8 15-16"/>
  <circle cx="26" cy="112" r="24" stroke-opacity=".38"/><path d="M15 113l8 8 15-16"/>
  <circle cx="26" cy="198" r="24" stroke-opacity=".38"/><path d="M15 199l8 8 15-16"/>
</g>
</svg>